<svg width="44" height="49" viewBox="0 0 44 49" fill="none" xmlns="http://www.w3.org/2000/svg">
<path d="M39.3707 27.1459C38.9552 25.2603 38.364 23.5984 37.5969 22.1603C36.9258 20.818 36.1109 19.6515 35.1521 18.6608C34.2892 17.766 33.3304 17.0309 32.2758 16.4556C31.349 15.9123 30.3583 15.4969 29.3036 15.2093C28.4088 14.9855 27.482 14.8258 26.5232 14.7299C25.7243 14.666 24.9253 14.666 24.1263 14.7299C23.583 14.7618 23.0557 14.8098 22.5444 14.8737L21.9212 15.0175L14.5866 17.2706C9.18558 18.9005 5.12681 20.1149 2.41031 20.9139C1.67526 21.1376 1.19588 21.4892 0.972167 21.9685C0.780415 22.4479 0.860312 22.9912 1.21186 23.5984C1.81908 24.5252 2.79382 25.8515 4.13609 27.5773L5.19073 28.8716L5.71805 29.4948C6.35722 30.1979 6.75671 30.7572 6.9165 31.1727C7.74743 33.3778 9.07372 35.0716 10.8954 36.2541C12.749 37.4366 14.7624 37.884 16.9356 37.5964C17.7985 37.4686 19.1248 37.1969 20.9145 36.7814L22.9758 36.3021C22.7521 37.4845 22.4005 39.1943 21.9212 41.4314L21.298 44.4515C21.0742 45.5381 20.9943 46.3371 21.0583 46.8485C21.1222 47.3598 21.3779 47.7113 21.8253 47.9031C22.2727 48.0949 23.0078 48.1907 24.0304 48.1907C26.5871 48.1907 28.984 47.5995 31.2212 46.417C33.3624 45.2985 35.1681 43.7325 36.6382 41.7191C38.1083 39.7057 39.083 37.4686 39.5624 35.0077C40.0737 32.3871 40.0098 29.7665 39.3707 27.1459ZM18.2299 34.0969C17.2392 34.3526 16.2165 34.4005 15.1619 34.2407C14.1072 34.049 13.1644 33.6655 12.3335 33.0902C11.4067 32.483 10.7356 31.7 10.3201 30.7412C12.7809 29.9742 14.8423 29.351 16.5041 28.8716L18.2299 28.3443C19.8279 27.8649 21.0263 27.5294 21.8253 27.3376C23.1675 26.9861 24.382 26.7304 25.4686 26.5706C26.5552 26.4108 27.6418 26.5067 28.7284 26.8582C29.7191 27.2098 30.582 27.7531 31.317 28.4881C32.0841 29.1912 32.6114 29.9582 32.899 30.7892L30.9335 31.0289C29.016 31.2526 27.5938 31.4763 26.667 31.7C25.6124 31.9557 24.2062 32.3551 22.4485 32.8984C20.7227 33.4417 19.3165 33.8412 18.2299 34.0969ZM33.5701 40.5206C31.2371 43.6206 28.1052 45.1067 24.1742 44.9789C24.3021 44.3717 24.4779 43.4608 24.7016 42.2464C24.9572 40.8082 25.165 39.7536 25.3248 39.0825C25.6124 37.932 25.916 36.9253 26.2356 36.0624C26.4273 35.551 26.9387 35.1196 27.7696 34.768C28.6005 34.3845 29.3835 34.1928 30.1186 34.1928C30.7578 34.1928 31.4449 34.4005 32.1799 34.816C32.915 35.2314 33.4263 35.7108 33.7139 36.2541C34.0016 36.7974 34.1294 37.5325 34.0975 38.4593C34.0975 39.3541 33.9217 40.0412 33.5701 40.5206ZM35.8232 29.4948C34.9284 27.8969 33.7779 26.5866 32.3717 25.5639C30.9975 24.5093 29.4634 23.8381 27.7696 23.5505C26.0758 23.2309 24.382 23.3108 22.6882 23.7902C21.282 24.1737 19.2206 24.7969 16.5041 25.6598L11.998 27.002C10.4 27.4495 8.94589 27.3696 7.63557 26.7624C6.32526 26.1232 5.31856 25.0206 4.61547 23.4546C5.86186 23.0711 7.69949 22.4959 10.1284 21.7289C15.2418 20.067 19.0928 18.9165 21.6815 18.2773C24.1423 17.6701 26.5232 17.8618 28.8243 18.8526C31.0294 19.7794 32.867 21.3294 34.3371 23.5026C35.8392 25.7397 36.7021 28.3124 36.9258 31.2206L35.8232 29.4948ZM35.9191 0.252543C34.6408 0.252543 33.4423 0.572131 32.3237 1.21131C31.2371 1.85048 30.3743 2.72935 29.7351 3.84791C29.0959 4.9345 28.7763 6.11698 28.7763 7.39533C28.7763 8.67368 29.0959 9.87214 29.7351 10.9907C30.3743 12.0773 31.2371 12.9402 32.3237 13.5794C33.4103 14.2185 34.6088 14.5381 35.9191 14.5381C37.2294 14.5381 38.4279 14.2185 39.5145 13.5794C40.6011 12.9402 41.464 12.0773 42.1031 10.9907C42.7423 9.87214 43.0619 8.67368 43.0619 7.39533C43.0619 6.11698 42.7423 4.9345 42.1031 3.84791C41.464 2.72935 40.5851 1.85048 39.4665 1.21131C38.3799 0.572131 37.1975 0.252543 35.9191 0.252543ZM35.9191 12.0453C34.6408 12.0453 33.5382 11.5979 32.6114 10.7031C31.7165 9.77626 31.2691 8.67368 31.2691 7.39533C31.2691 6.11698 31.7165 5.03038 32.6114 4.13553C33.5382 3.20873 34.6408 2.74533 35.9191 2.74533C37.1975 2.74533 38.2841 3.20873 39.1789 4.13553C40.1057 5.03038 40.5691 6.11698 40.5691 7.39533C40.5691 8.67368 40.1057 9.77626 39.1789 10.7031C38.2841 11.5979 37.1975 12.0453 35.9191 12.0453Z" fill="#7F56D9"/>
</svg>
